# xmcd CD database file
#
# Track frame offsets:
#	150
#	21457
#	36722
#	55877
#	82637
#	93442
#	114147
#	133630
#	144077
#	185887
#	224770
#	251250
#
# Disc length: 3499 seconds
#
# Revision: 0
# Processed by: cddbd v1.5.2PL0 Copyright (c) Steve Scherf et al.
# Submitted via: CDex 1.51
#
DISCID=a70da90c
DTITLE=Caroline Mackay - Suite: Mothers and Angels
DYEAR=1996
DGENRE=New Age
TTITLE0=Swans upon the bay
TTITLE1=Little sister's prayer
TTITLE2=Gaelic blessing
TTITLE3=Wishing you'd be near
TTITLE4=Venite adoremus
TTITLE5=Wings
TTITLE6=Gartan mother's lullabye
TTITLE7=Favourite son
TTITLE8=Tahirih's dream
TTITLE9=Our grandmother's heart
TTITLE10=Let's be angels
TTITLE11=Gaelic blessing: Reprise
EXTD=YEAR: 1996
EXTT0=
EXTT1=
EXTT2=
EXTT3=
EXTT4=
EXTT5=
EXTT6=
EXTT7=
EXTT8=
EXTT9=
EXTT10=
EXTT11=
PLAYORDER=
